<?xml version="1.0" standalone="no"?>
<!DOCTYPE svg PUBLIC "-//W3C//DTD SVG 20010904//EN"
 "http://www.w3.org/TR/2001/REC-SVG-20010904/DTD/svg10.dtd">
<svg version="1.0" xmlns="http://www.w3.org/2000/svg"
 width="108.000000pt" height="388.000000pt" viewBox="0 0 108.000000 388.000000"
 preserveAspectRatio="xMidYMid meet">
<metadata>
Created by potrace 1.16, written by Peter Selinger 2001-2019
</metadata>
<g transform="translate(0.000000,388.000000) scale(0.100000,-0.100000)"
fill="#000000" stroke="none">
<path d="M391 3844 c-158 -42 -302 -182 -351 -341 -27 -89 -28 -237 0 -324 51
-164 196 -303 361 -345 84 -22 251 -15 325 14 150 57 274 190 318 341 23 79
21 232 -4 312 -50 163 -194 302 -355 344 -74 19 -222 19 -294 -1z"/>
<path d="M380 2437 c-90 -30 -146 -66 -212 -132 -61 -62 -107 -140 -132 -224
-21 -71 -21 -211 0 -282 51 -174 189 -312 363 -363 71 -21 211 -21 282 0 174
51 312 189 363 363 21 71 21 211 0 282 -51 174 -189 312 -363 363 -82 24 -220
21 -301 -7z"/>
<path d="M380 1037 c-90 -30 -146 -66 -212 -132 -61 -62 -107 -140 -132 -224
-21 -71 -21 -211 0 -282 51 -174 189 -312 363 -363 71 -21 211 -21 282 0 174
51 312 189 363 363 21 71 21 211 0 282 -51 174 -189 312 -363 363 -82 24 -220
21 -301 -7z"/>
</g>
</svg>
